<svg width="42" height="42" viewBox="0 0 42 42" fill="none" xmlns="http://www.w3.org/2000/svg">
<path d="M14.75 20.4792C13.3125 20.4792 12.1458 21.6458 12.1458 23.0833C12.1458 24.5208 13.3125 25.6875 14.75 25.6875C16.1875 25.6875 17.3542 24.5208 17.3542 23.0833C17.3542 21.6458 16.1875 20.4792 14.75 20.4792ZM27.25 20.4792C25.8125 20.4792 24.6458 21.6458 24.6458 23.0833C24.6458 24.5208 25.8125 25.6875 27.25 25.6875C28.6875 25.6875 29.8542 24.5208 29.8542 23.0833C29.8542 21.6458 28.6875 20.4792 27.25 20.4792ZM21 0.166687C9.50001 0.166687 0.166672 9.50002 0.166672 21C0.166672 32.5 9.50001 41.8333 21 41.8333C32.5 41.8333 41.8334 32.5 41.8334 21C41.8334 9.50002 32.5 0.166687 21 0.166687ZM21 37.6667C11.8125 37.6667 4.33334 30.1875 4.33334 21C4.33334 20.3958 4.37501 19.7917 4.43751 19.2083C9.35418 17.0208 13.25 13 15.2917 8.02085C19.0625 13.3542 25.2708 16.8333 32.2917 16.8333C33.9167 16.8333 35.4792 16.6458 36.9792 16.2917C37.4167 17.7708 37.6667 19.3542 37.6667 21C37.6667 30.1875 30.1875 37.6667 21 37.6667Z" fill="#181D28"/>
</svg>
