<svg width="50" height="50" viewBox="0 0 50 50" fill="none" xmlns="http://www.w3.org/2000/svg">
<path d="M18.75 24.4792C17.3125 24.4792 16.1458 25.6458 16.1458 27.0833C16.1458 28.5208 17.3125 29.6875 18.75 29.6875C20.1875 29.6875 21.3542 28.5208 21.3542 27.0833C21.3542 25.6458 20.1875 24.4792 18.75 24.4792ZM31.25 24.4792C29.8125 24.4792 28.6458 25.6458 28.6458 27.0833C28.6458 28.5208 29.8125 29.6875 31.25 29.6875C32.6875 29.6875 33.8542 28.5208 33.8542 27.0833C33.8542 25.6458 32.6875 24.4792 31.25 24.4792ZM25 4.16669C13.5 4.16669 4.16667 13.5 4.16667 25C4.16667 36.5 13.5 45.8333 25 45.8333C36.5 45.8333 45.8334 36.5 45.8334 25C45.8334 13.5 36.5 4.16669 25 4.16669ZM25 41.6667C15.8125 41.6667 8.33334 34.1875 8.33334 25C8.33334 24.3958 8.37501 23.7917 8.43751 23.2083C13.3542 21.0208 17.25 17 19.2917 12.0209C23.0625 17.3542 29.2708 20.8333 36.2917 20.8333C37.9167 20.8333 39.4792 20.6458 40.9792 20.2917C41.4167 21.7708 41.6667 23.3542 41.6667 25C41.6667 34.1875 34.1875 41.6667 25 41.6667Z" fill="white"/>
</svg>
