<svg width="25" height="25" viewBox="0 0 25 25" fill="none" xmlns="http://www.w3.org/2000/svg">
<path d="M13.2416 13.0494H11.2416V7.04942H13.2416V13.0494ZM13.2416 17.0494H11.2416V15.0494H13.2416V17.0494ZM12.2416 2.04942C10.9284 2.04942 9.62806 2.30808 8.4148 2.81063C7.20155 3.31317 6.09916 4.04977 5.17057 4.97836C3.29521 6.85372 2.24164 9.39726 2.24164 12.0494C2.24164 14.7016 3.29521 17.2451 5.17057 19.1205C6.09916 20.0491 7.20155 20.7857 8.4148 21.2882C9.62806 21.7908 10.9284 22.0494 12.2416 22.0494C14.8938 22.0494 17.4373 20.9959 19.3127 19.1205C21.1881 17.2451 22.2416 14.7016 22.2416 12.0494C22.2416 10.7362 21.983 9.43584 21.4804 8.22259C20.9779 7.00933 20.2413 5.90694 19.3127 4.97836C18.3841 4.04977 17.2817 3.31317 16.0685 2.81063C14.8552 2.30808 13.5549 2.04942 12.2416 2.04942V2.04942Z" fill="#d43e3e"/>
</svg>
