<svg width="50" height="50" viewBox="0 0 50 50" fill="none" xmlns="http://www.w3.org/2000/svg">
<path d="M18.6458 25.5989C17.424 25.5989 16.4323 26.5906 16.4323 27.8125C16.4323 29.0344 17.424 30.026 18.6458 30.026C19.8677 30.026 20.8594 29.0344 20.8594 27.8125C20.8594 26.5906 19.8677 25.5989 18.6458 25.5989ZM29.2708 25.5989C28.049 25.5989 27.0573 26.5906 27.0573 27.8125C27.0573 29.0344 28.049 30.026 29.2708 30.026C30.4927 30.026 31.4844 29.0344 31.4844 27.8125C31.4844 26.5906 30.4927 25.5989 29.2708 25.5989ZM23.9583 8.33331C14.1833 8.33331 6.25 16.2666 6.25 26.0416C6.25 35.8166 14.1833 43.75 23.9583 43.75C33.7333 43.75 41.6667 35.8166 41.6667 26.0416C41.6667 16.2666 33.7333 8.33331 23.9583 8.33331ZM23.9583 40.2083C16.149 40.2083 9.79167 33.851 9.79167 26.0416C9.79167 25.5281 9.79167 24.2708 9.79167 24.2708H38.125C38.125 24.2708 38.125 24.6427 38.125 26.0416C38.125 33.851 31.7677 40.2083 23.9583 40.2083Z" fill="#181D28"/>
<rect x="33.3333" y="18.75" width="16.6667" height="4.16667" rx="2.08333" fill="#181D28"/>
</svg>
